<svg id="Component_18" data-name="Component 18" xmlns="http://www.w3.org/2000/svg" width="21.169" height="21.17" viewBox="0 0 21.169 21.17">
  <path id="Path_504" data-name="Path 504" d="M19.6,0H1.561A1.545,1.545,0,0,0,0,1.527V19.642A1.546,1.546,0,0,0,1.561,21.17H19.6a1.549,1.549,0,0,0,1.566-1.528V1.527A1.548,1.548,0,0,0,19.6,0ZM6.28,18.039H3.137V7.936H6.28ZM4.709,6.556A1.821,1.821,0,1,1,6.529,4.735,1.82,1.82,0,0,1,4.709,6.556ZM18.04,18.039H14.9V13.126c0-1.171-.02-2.679-1.631-2.679-1.634,0-1.884,1.277-1.884,2.6v5H8.249V7.936h3.01V9.318H11.3a3.3,3.3,0,0,1,2.971-1.632c3.179,0,3.766,2.092,3.766,4.813Z" fill="#fff"/>
</svg>
