<svg xmlns="http://www.w3.org/2000/svg" width="21.811" height="16.358" viewBox="0 0 21.811 16.358">
  <path id="envelope" d="M21.4,69.4a.256.256,0,0,1,.413.2v8.711a2.045,2.045,0,0,1-2.045,2.045H2.045A2.045,2.045,0,0,1,0,78.313V69.606a.255.255,0,0,1,.413-.2c.954.741,2.219,1.683,6.564,4.839.9.656,2.415,2.036,3.928,2.028,1.521.013,3.067-1.4,3.932-2.028C19.182,71.088,20.443,70.143,21.4,69.4Zm-10.492,5.5c.988.017,2.411-1.244,3.127-1.764,5.653-4.1,6.083-4.46,7.387-5.482a1.019,1.019,0,0,0,.392-.805v-.809A2.045,2.045,0,0,0,19.766,64H2.045A2.045,2.045,0,0,0,0,66.045v.809a1.026,1.026,0,0,0,.392.805c1.3,1.018,1.734,1.38,7.387,5.482C8.494,73.661,9.917,74.922,10.905,74.905Z" transform="translate(0 -64)" fill="#ed1b24"/>
</svg>
