<svg xmlns="http://www.w3.org/2000/svg" width="15.542" height="20.727" viewBox="0 0 15.542 20.727">
  <path id="file-pdf" d="M14.972,3.867l-3.4-3.4A1.943,1.943,0,0,0,10.2-.1H1.943A1.949,1.949,0,0,0,0,1.847V18.685a1.943,1.943,0,0,0,1.943,1.943H13.6a1.943,1.943,0,0,0,1.943-1.943V5.243a1.952,1.952,0,0,0-.571-1.376Zm-.915.919a.637.637,0,0,1,.17.3H10.362V1.219a.637.637,0,0,1,.3.17ZM13.6,19.332H1.943a.65.65,0,0,1-.648-.648V1.847A.65.65,0,0,1,1.943,1.2H9.066V5.409a.969.969,0,0,0,.971.971h4.209v12.3A.65.65,0,0,1,13.6,19.332Zm-.89-6.929c-.546-.538-2.226-.372-2.983-.271A4.237,4.237,0,0,1,7.9,9.841,5.915,5.915,0,0,0,8.16,7.214a.947.947,0,0,0-1.805-.275,6.808,6.808,0,0,0,.34,3.149,38.967,38.967,0,0,1-1.7,3.586c-.842.433-2.19,1.186-2.38,2.121-.142.68.927,1.595,2.149.259a10.83,10.83,0,0,0,1.267-1.842,23.53,23.53,0,0,1,3.319-.971,6.175,6.175,0,0,0,2.615.805.981.981,0,0,0,.749-1.643Zm-9.277,3.6a5.653,5.653,0,0,1,1.437-1.651C3.975,15.782,3.432,16.033,3.432,16.005Zm3.853-9c.352,0,.316,1.518.085,1.927A3.933,3.933,0,0,1,7.286,7.007ZM6.136,13.455A18.985,18.985,0,0,0,7.3,10.877a5.273,5.273,0,0,0,1.421,1.68A14.8,14.8,0,0,0,6.136,13.455Zm6.209-.239s-.235.283-1.761-.368C12.244,12.727,12.515,13.107,12.345,13.216Z" transform="translate(0 0.1)" fill="#fff"/>
</svg>
