<svg id="Natco-Logo-White" xmlns="http://www.w3.org/2000/svg" width="194.42" height="77.336" viewBox="0 0 194.42 77.336">
  <path id="Path_639" data-name="Path 639" d="M59,68.4v1.29H55.09v2.53h3.54V73.5H55.09v3.72H53.61V68.4Z" fill="#fff"/>
  <path id="Path_640" data-name="Path 640" d="M67.08,77.33c-2,0-3.29-1.19-3.29-4V72.25c0-2.77,1.33-4,3.29-4s3.31,1.19,3.31,4v1.12C70.39,76.14,69.06,77.33,67.08,77.33Zm-1.81-4c0,1.9.64,2.67,1.81,2.67s1.83-.77,1.83-2.67V72.25c0-1.91-.65-2.67-1.83-2.67s-1.81.76-1.81,2.67Z" fill="#fff"/>
  <path id="Path_641" data-name="Path 641" d="M78.75,77.33c-2,0-3.3-1.19-3.3-4V72.25c0-2.77,1.33-4,3.3-4s3.3,1.19,3.3,4v1.12C82.05,76.14,80.73,77.33,78.75,77.33Zm-1.82-4c0,1.9.64,2.67,1.82,2.67s1.82-.77,1.82-2.67V72.25c0-1.91-.65-2.67-1.82-2.67s-1.82.76-1.82,2.67Z" fill="#fff"/>
  <path id="Path_642" data-name="Path 642" d="M87.47,77.22V68.4h3c2,0,3.31,1.06,3.31,3.89v1c0,2.83-1.33,3.89-3.31,3.89Zm4.8-3.89v-1c0-1.82-.56-2.6-1.82-2.6H89v6.25h1.5c1.21-.04,1.77-.83,1.77-2.65Z" fill="#fff"/>
  <path id="Path_643" data-name="Path 643" d="M110.78,70.54a2,2,0,0,0-1.9-1c-.91,0-1.44.41-1.44,1.15s.66,1.17,1.89,1.44c1.77.38,2.69,1,2.69,2.63,0,1.32-.88,2.53-3,2.53a3.75,3.75,0,0,1-3.29-1.44l1.16-.81a2.35,2.35,0,0,0,2,1c1.22,0,1.6-.54,1.6-1.17s-.4-1.14-1.93-1.47c-1.7-.36-2.65-1.18-2.65-2.67,0-1.33.86-2.44,2.93-2.44a3.3,3.3,0,0,1,3,1.44Z" fill="#fff"/>
  <path id="Path_644" data-name="Path 644" d="M122.75,68.4v1.29h-3.92V72h3.54v1.27h-3.54v2.65h3.92V77.2h-5.4V68.4Z" fill="#fff"/>
  <path id="Path_645" data-name="Path 645" d="M132.88,77.22l-1.7-3.58h-1.71v3.58H128V68.4h3c2,0,3.24.88,3.24,2.63a2.3,2.3,0,0,1-1.59,2.37l1.88,3.82Zm-2-4.86c1.25,0,1.86-.33,1.86-1.33s-.61-1.34-1.86-1.34h-1.42v2.67Z" fill="#fff"/>
  <path id="Path_646" data-name="Path 646" d="M140.18,68.4l2.17,6.45,2.19-6.45h1.63L143,77.22h-1.36l-3.13-8.82Z" fill="#fff"/>
  <path id="Path_647" data-name="Path 647" d="M152.66,77.22h-1.49V68.4h1.49Z" fill="#fff"/>
  <path id="Path_648" data-name="Path 648" d="M163.26,71.14a1.68,1.68,0,0,0-1.78-1.56c-1.17,0-1.81.76-1.81,2.67v1.12c0,1.88.64,2.67,1.81,2.67a1.66,1.66,0,0,0,1.78-1.56h1.41a3,3,0,0,1-3.19,2.85c-2,0-3.29-1.19-3.29-4V72.25c0-2.77,1.32-4,3.29-4a3,3,0,0,1,3.21,2.85Z" fill="#fff"/>
  <path id="Path_649" data-name="Path 649" d="M175.28,68.4v1.29h-3.92V72h3.53v1.27h-3.53v2.65h3.92V77.2h-5.41V68.4Z" fill="#fff"/>
  <path id="Path_650" data-name="Path 650" d="M38,22.29,30.61,0,23.48,22.28,0,22.37,18.96,36.09,11.87,58.37l17.46-18.6-8.29,6.05,3.67-11.6-9.7-6.99,11.98.01,3.75-11.47,3.72,11.27L53.94,22.2Z" fill="#ec1c24"/>
  <path id="Path_651" data-name="Path 651" d="M67.72,56.68,78.81,22.29H88.88l11,34.39H91.13l-2.25-7.94H78.23L76,56.68Zm15.7-27L79.77,42.77H87.4L83.8,29.7Z" fill="#fff"/>
  <path id="Path_652" data-name="Path 652" d="M109.19,56.68V29.07H99.82V22.29h27v6.78h-9.38V56.68Z" fill="#fff"/>
  <path id="Path_653" data-name="Path 653" d="M138.24,41.46c0,5.8,2.39,9,6.55,9,3.65,0,5.84-2.5,6-5.92h7.89v1c-.18,7-6,11.79-14,11.79-9.62,0-14.94-6.1-14.94-15.87V37.61c0-9.8,5.37-15.92,14.94-15.92,8,0,13.78,4.78,14,12v1h-7.89c-.18-3.51-2.42-6.13-6-6.13-4.13,0-6.55,3.28-6.55,9.1Z" fill="#fff"/>
  <path id="Path_654" data-name="Path 654" d="M179.13,57.31c-9.7,0-15.32-6.1-15.32-15.77v-4c0-9.77,5.62-15.84,15.32-15.84s15.29,6.12,15.29,15.84v4C194.42,51.21,188.85,57.31,179.13,57.31Zm0-28.9c-4.11,0-6.88,3.05-6.88,9v4.13c0,6,2.77,9,6.88,9s6.85-3,6.85-9V37.43c.02-5.97-2.77-9.02-6.85-9.02Z" fill="#fff"/>
  <path id="Path_655" data-name="Path 655" d="M55.12,23.96V42.72H54.8L44.01,26.73l-9.06,2.25-.48.12V56.68h7.71V36.05h.32L56.33,56.68h6.5V22.29h-.98Z" fill="#fff"/>
  <path id="Path_656" data-name="Path 656" d="M38.21,22.29h0Z"/>
</svg>
