<svg id="Natco-Logo-White" xmlns="http://www.w3.org/2000/svg" width="120.03" height="47.745" viewBox="0 0 120.03 47.745">
  <path id="Path_639" data-name="Path 639" d="M56.938,68.4v.8H54.524v1.562h2.185v.79H54.524v2.3H53.61V68.4Z" transform="translate(-20.513 -26.172)" fill="#fff"/>
  <path id="Path_640" data-name="Path 640" d="M65.821,73.856c-1.235,0-2.031-.735-2.031-2.469v-.667c0-1.71.821-2.469,2.031-2.469s2.043.735,2.043,2.469v.691C67.865,73.121,67.044,73.856,65.821,73.856ZM64.7,71.386c0,1.173.4,1.648,1.117,1.648s1.13-.475,1.13-1.648v-.667c0-1.179-.4-1.648-1.13-1.648S64.7,69.54,64.7,70.719Z" transform="translate(-24.408 -26.114)" fill="#fff"/>
  <path id="Path_641" data-name="Path 641" d="M77.487,73.856c-1.235,0-2.037-.735-2.037-2.469v-.667c0-1.71.821-2.469,2.037-2.469s2.037.735,2.037,2.469v.691C79.525,73.121,78.71,73.856,77.487,73.856Zm-1.124-2.469c0,1.173.4,1.648,1.124,1.648s1.124-.475,1.124-1.648v-.667c0-1.179-.4-1.648-1.124-1.648s-1.124.469-1.124,1.648Z" transform="translate(-28.869 -26.114)" fill="#fff"/>
  <path id="Path_642" data-name="Path 642" d="M87.47,73.845V68.4h1.852c1.235,0,2.044.654,2.044,2.4v.617c0,1.747-.821,2.4-2.044,2.4Zm2.963-2.4v-.617c0-1.124-.346-1.605-1.124-1.605h-.9V73.08h.926C90.088,73.055,90.433,72.567,90.433,71.444Z" transform="translate(-33.468 -26.172)" fill="#fff"/>
  <path id="Path_643" data-name="Path 643" d="M108.848,69.675a1.235,1.235,0,0,0-1.173-.617c-.562,0-.889.253-.889.71s.407.722,1.167.889c1.093.235,1.661.617,1.661,1.624,0,.815-.543,1.562-1.852,1.562a2.315,2.315,0,0,1-2.031-.889l.716-.5a1.451,1.451,0,0,0,1.235.617c.753,0,.988-.333.988-.722s-.247-.7-1.192-.908c-1.05-.222-1.636-.729-1.636-1.648,0-.821.531-1.506,1.809-1.506a2.037,2.037,0,0,1,1.852.889Z" transform="translate(-40.455 -26.125)" fill="#fff"/>
  <path id="Path_644" data-name="Path 644" d="M120.684,68.4v.8h-2.42v1.426h2.185v.784h-2.185v1.636h2.42v.79H117.35V68.4Z" transform="translate(-44.901 -26.172)" fill="#fff"/>
  <path id="Path_645" data-name="Path 645" d="M131.013,73.845l-1.05-2.21h-1.056v2.21H128V68.4h1.852c1.235,0,2,.543,2,1.624a1.42,1.42,0,0,1-.982,1.463l1.161,2.358Zm-1.235-3c.772,0,1.148-.2,1.148-.821s-.377-.827-1.148-.827H128.9v1.648Z" transform="translate(-48.976 -26.172)" fill="#fff"/>
  <path id="Path_646" data-name="Path 646" d="M139.541,68.4l1.34,3.982,1.352-3.982h1.006l-1.957,5.445h-.84L138.51,68.4Z" transform="translate(-52.998 -26.172)" fill="#fff"/>
  <path id="Path_647" data-name="Path 647" d="M152.09,73.845h-.92V68.4h.92Z" transform="translate(-57.842 -26.172)" fill="#fff"/>
  <path id="Path_648" data-name="Path 648" d="M161.32,70.031a1.037,1.037,0,0,0-1.1-.963c-.722,0-1.117.469-1.117,1.648v.691c0,1.161.4,1.648,1.117,1.648a1.025,1.025,0,0,0,1.1-.963h.871a1.852,1.852,0,0,1-1.969,1.76c-1.235,0-2.031-.735-2.031-2.469v-.667c0-1.71.815-2.469,2.031-2.469a1.852,1.852,0,0,1,1.982,1.76Z" transform="translate(-60.528 -26.111)" fill="#fff"/>
  <path id="Path_649" data-name="Path 649" d="M173.21,68.4v.8h-2.42v1.426h2.179v.784H170.79v1.636h2.42v.79h-3.34V68.4Z" transform="translate(-64.997 -26.172)" fill="#fff"/>
  <path id="Path_650" data-name="Path 650" d="M23.46,13.761,18.9,0,14.5,13.755,0,13.811l11.705,8.47L7.328,36.036,18.108,24.553,12.99,28.288l2.266-7.162L9.267,16.811l7.4.006,2.315-7.081,2.3,6.958L33.3,13.706Z" fill="#ec1c24"/>
  <path id="Path_651" data-name="Path 651" d="M67.72,43.521,74.567,22.29h6.217l6.791,21.231h-5.4l-1.389-4.9H74.209l-1.377,4.9Zm9.693-16.669-2.253,8.081H79.87l-2.223-8.069Z" transform="translate(-25.912 -8.529)" fill="#fff"/>
  <path id="Path_652" data-name="Path 652" d="M105.6,43.521V26.476H99.82V22.29h16.669v4.186H110.7V43.521Z" transform="translate(-38.194 -8.529)" fill="#fff"/>
  <path id="Path_653" data-name="Path 653" d="M134.988,33.9c0,3.581,1.476,5.556,4.044,5.556a3.558,3.558,0,0,0,3.7-3.655h4.871v.617c-.111,4.322-3.7,7.279-8.643,7.279-5.939,0-9.224-3.766-9.224-9.8V31.519c0-6.05,3.315-9.829,9.224-9.829,4.939,0,8.507,2.951,8.643,7.408v.617h-4.871a3.665,3.665,0,0,0-3.7-3.784c-2.55,0-4.044,2.025-4.044,5.618Z" transform="translate(-49.642 -8.299)" fill="#fff"/>
  <path id="Path_654" data-name="Path 654" d="M173.268,43.685c-5.988,0-9.458-3.766-9.458-9.736V31.479c0-6.032,3.47-9.779,9.458-9.779s9.44,3.778,9.44,9.779v2.469C182.708,39.919,179.269,43.685,173.268,43.685Zm0-17.842c-2.537,0-4.248,1.883-4.248,5.556v2.55c0,3.7,1.71,5.556,4.248,5.556s4.229-1.852,4.229-5.556V31.411C177.509,27.726,175.787,25.843,173.268,25.843Z" transform="translate(-62.678 -8.303)" fill="#fff"/>
  <path id="Path_655" data-name="Path 655" d="M47.219,23.321V34.9h-.2L40.36,25.031,34.766,26.42l-.3.074V43.521h4.76V30.785h.2l8.538,12.736h4.013V22.29h-.605Z" transform="translate(-13.189 -8.529)" fill="#fff"/>
  <path id="Path_656" data-name="Path 656" d="M38.13,22.29h0Z" transform="translate(-14.54 -8.529)"/>
</svg>
