<?xml version="1.0" encoding="utf-8"?>
<!-- Svg Vector Icons : http://www.onlinewebfonts.com/icon -->
<!DOCTYPE svg PUBLIC "-//W3C//DTD SVG 1.1//EN" "http://www.w3.org/Graphics/SVG/1.1/DTD/svg11.dtd">
<svg version="1.1" xmlns="http://www.w3.org/2000/svg" xmlns:xlink="http://www.w3.org/1999/xlink" x="0px" y="0px" viewBox="0 0 1000 1000" enable-background="new 0 0 1000 1000" xml:space="preserve">
<metadata> Svg Vector Icons : http://www.onlinewebfonts.com/icon </metadata>
<g><g transform="matrix(1 0 0 -1 0 1008)"><path d="M745,726.8L526.3,508L745,289.3L718.8,263L500,481.8L281.3,263L255,289.3L473.7,508L255,726.8l26.3,26.3L500,534.3L718.8,753L745,726.8z M500,963c-61.6,0-120.4-12-176.5-36c-56.1-24-104.5-56.4-145.3-97.2C137.4,789,105,740.5,81,684.5S45,569.6,45,508s12-120.4,36-176.5c24-56.1,56.4-104.5,97.2-145.3S267.5,113,323.5,89S438.4,53,500,53s120.4,12,176.5,36c56.1,24,104.5,56.4,145.3,97.2S895,275.5,919,331.5c24,56.1,36,114.9,36,176.5s-12,120.4-36,176.5c-24,56.1-56.4,104.5-97.2,145.3C781,870.6,732.5,903,676.5,927C620.4,951,561.6,963,500,963z M500,998c134.8,0,250.2-48,346.1-143.9C942,758.2,990,642.8,990,508c0-134.8-48-250.2-143.9-346.1S634.8,18,500,18c-134.8,0-250.2,48-346.1,143.9C58,257.8,10,373.2,10,508c0,134.8,48,250.2,143.9,346.1C249.8,950,365.2,998,500,998z"/></g></g>
</svg>